<svg xmlns="http://www.w3.org/2000/svg" aria-hidden="true" style="position:absolute;width:0;height:0;overflow:hidden"><defs><symbol id="icon-facebook" viewBox="0 0 32 32"><path d="M19.573 1.368a7.994 7.994 0 0 0-7.246 5.802l-.014.056c-.225.816-.267 1.236-.297 3.023l-.031 1.743-1.472.017c-1.671.02-1.775.043-2.147.455-.345.384-.34.324-.34 3.536s-.005 3.152.34 3.536c.372.413.475.435 2.152.455l1.479.019.015 4.808c.015 4.751.016 4.812.127 5.049.135.291.467.601.748.7.165.059.788.073 3.113.073s2.948-.015 3.113-.073c.281-.099.613-.409.748-.7.111-.237.112-.299.127-5.049l.015-4.809 1.479-.017c1.376-.016 1.495-.025 1.719-.131.288-.136.552-.401.663-.668.168-.405 1.429-5.563 1.432-5.859v-.021c0-.378-.166-.717-.428-.949l-.001-.001c-.384-.345-.516-.363-2.821-.363h-2.044V9.34l2.147-.017c2.047-.015 2.157-.021 2.387-.128.291-.135.601-.467.7-.748.059-.165.073-.788.073-3.113s-.015-2.948-.073-3.113c-.099-.281-.409-.613-.7-.748-.231-.108-.327-.112-2.453-.117a106.4 106.4 0 0 0-2.6.014l.094-.001zm3.094 3.965v1.333l-1.347.001c-.74 0-1.515.024-1.72.053-1.133.16-2.065 1.111-2.217 2.265-.033.257-.049 1.261-.039 2.533.015 1.892.025 2.128.112 2.32.129.289.388.551.677.687.229.108.332.115 2.2.131 1.077.009 1.96.027 1.96.04s-.147.611-.325 1.327l-.325 1.301-1.635.017c-1.536.016-1.649.024-1.875.131a1.453 1.453 0 0 0-.674.678l-.004.009c-.089.2-.097.524-.111 5.027l-.015 4.813h-2.661l-.015-4.813c-.013-4.503-.021-4.827-.111-5.027a1.463 1.463 0 0 0-.669-.683l-.008-.004c-.223-.105-.344-.115-1.72-.131l-1.48-.019v-2.648l1.48-.019c1.376-.016 1.497-.025 1.72-.131.289-.137.548-.399.676-.687.087-.192.099-.477.128-2.827.036-2.793.033-2.767.331-3.577.591-1.604 2.064-2.899 3.747-3.292.559-.131.521-.129 2.279-.137l1.64-.007V5.33z"/></symbol><symbol id="icon-instagram" viewBox="0 0 32 32"><path d="M8.933 1.368a7.957 7.957 0 0 0-5.622 2.743l-.008.01a8.022 8.022 0 0 0-1.772 3.536l-.01.053c-.175.845-.193 1.787-.173 8.823.017 6.213.028 7.011.108 7.436.357 1.916 1.252 3.504 2.661 4.724a7.798 7.798 0 0 0 3.188 1.685l.054.012c.947.252.875.249 8.64.249s7.693.003 8.64-.249a7.86 7.86 0 0 0 3.252-1.705l-.009.008c1.452-1.257 2.376-2.945 2.685-4.907.057-.363.072-1.915.072-7.787s-.015-7.424-.072-7.787c-.419-2.656-2.02-4.869-4.355-6.02a7.625 7.625 0 0 0-2.957-.805l-.023-.001c-.564-.044-13.573-.061-14.3-.019zm14.736 2.717c1.053.217 1.893.647 2.644 1.355.784.739 1.247 1.529 1.564 2.667.091.327.096.777.096 7.893s-.005 7.567-.096 7.893c-.317 1.137-.78 1.928-1.564 2.667-.677.639-1.3.984-2.34 1.297-.371.112-.421.112-7.787.129-8.092.019-7.736.029-8.633-.284a5.43 5.43 0 0 1-3.263-3.265l-.012-.038c-.288-.844-.279-.559-.279-8.4 0-7.897-.012-7.56.297-8.447a5.413 5.413 0 0 1 3.292-3.27l.038-.011c.82-.272.536-.263 8.336-.268 6.471-.004 7.341.005 7.707.081zm-.816 3.352c-.28.103-.693.537-.768.807-.149.54-.041.965.341 1.34.329.32.593.415 1.045.375.691-.063 1.165-.588 1.165-1.292v-.016c0-.505-.285-.943-.702-1.163l-.007-.003c-.232-.12-.808-.145-1.075-.047zm-7.306 1.874c-1.204.115-2.428.56-3.353 1.22-2.868 2.047-3.641 6.089-1.724 9.003 1.68 2.549 4.767 3.652 7.637 2.728 2.313-.745 4.048-2.741 4.512-5.195.099-.519.085-1.748-.025-2.313-.277-1.415-.856-2.516-1.844-3.503a6.415 6.415 0 0 0-3.416-1.826l-.04-.006c-.449-.085-1.379-.143-1.747-.108zm1.76 2.816a3.974 3.974 0 0 1 1.577.989c.465.465.781.969.988 1.577.192.565.24 1.52.105 2.125a4.103 4.103 0 0 1-2.114 2.695l-.023.011a3.57 3.57 0 0 1-1.957.407l.012.001c-1.771-.08-3.152-1.155-3.689-2.867-.107-.339-.125-.511-.125-1.145 0-.639.017-.8.124-1.116.368-1.097 1.041-1.915 1.979-2.399.721-.373 1.117-.461 1.977-.441.617.015.781.039 1.147.163z"/></symbol><symbol id="icon-twitter" viewBox="0 0 32 32"><path d="M21.212 2.727c-.511.049-.901.137-1.559.351-1.872.609-3.387 1.951-4.265 3.776-.401.835-.581 1.524-.668 2.553-.027.319-.063.593-.079.611-.041.041-1.012-.083-1.601-.205-2.427-.503-4.813-1.787-6.515-3.507a18.142 18.142 0 0 1-1.359-1.585l-.032-.044a2.305 2.305 0 0 0-.444-.444l-.006-.004c-.201-.133-.269-.148-.685-.148-.415 0-.483.015-.684.148a1.785 1.785 0 0 0-.374.356l-.003.004c-.273.376-.723 1.744-1.011 3.071-.941 4.345-.283 8.259 1.911 11.328.907 1.269 2.413 2.692 3.683 3.475.204.127.372.243.372.257 0 .016-.283.14-.627.276-1.756.697-3.175.98-5.213 1.041-1.157.035-1.275.06-1.6.344-.552.485-.563 1.368-.024 1.907.284.285 2.073 1.155 3.357 1.633 2.232.829 4.324 1.229 6.773 1.291 4.181.105 7.888-1.011 11.247-3.385 3.872-2.739 6.531-7.279 7.255-12.385.16-1.137.22-1.931.229-3.067l.007-1.013.405-.507c1.056-1.32 1.768-2.724 2.168-4.271.121-.471.129-.563.077-.82-.141-.679-.68-1.081-1.38-1.031-.335.024-.404.052-.892.361-.763.484-1.409.837-2.053 1.124-.825.365-.743.363-1.135.039-.976-.804-2.396-1.379-3.795-1.535-.543-.061-.811-.06-1.481.005zm1.935 2.74a6.011 6.011 0 0 1 1.5.688l-.024-.015c.141.096.464.375.716.617.683.659.987.729 1.892.439.281-.091.521-.156.532-.145s-.197.259-.46.551c-.264.293-.528.623-.587.733-.121.229-.127.351-.075 1.745.105 2.875-.656 6.124-2.025 8.64a19.29 19.29 0 0 1-1.589 2.39l.033-.044c-.483.607-1.527 1.644-2.164 2.149a16.112 16.112 0 0 1-4.782 2.589l-.114.034c-2.557.827-5.433.985-8.267.459-.791-.147-1.119-.229-1.092-.272.012-.02.173-.079.357-.131 1.325-.369 4.004-1.705 4.584-2.285.503-.503.505-1.384.004-1.863-.08-.077-.543-.34-1.027-.585-.948-.48-1.681-.923-2.304-1.391-2.301-1.733-3.643-4.015-4.016-6.837-.179-1.349-.065-3.501.247-4.688l.055-.208.409.399c1.609 1.568 3.701 2.804 5.979 3.535 1.427.459 2.641.661 4.228.707l1.103.032.295-.144c.301-.152.537-.396.675-.695l.004-.009c.039-.095.079-.663.101-1.461.041-1.436.097-1.749.433-2.417.699-1.391 1.849-2.28 3.356-2.595.371-.076 1.623-.028 2.023.079z"/></symbol><symbol id="icon-mobile" viewBox="0 0 21 32"><path d="M16.935 2.286H3.636c-1.377 0-2.494 1.152-2.494 2.571v22.286c0 1.42 1.117 2.571 2.494 2.571h13.299c1.377 0 2.494-1.152 2.494-2.571V4.857c0-1.42-1.117-2.571-2.494-2.571zm-4.156 23.952c0 .52-.374.905-.831.905H8.577c-.41 0-.784-.386-.784-.857s.374-.857.831-.857h3.325c.457 0 .831.386.831.809zm3.325-3.381H4.468V5.714h11.636v17.143z"/></symbol><symbol id="icon-check" viewBox="0 0 45 32"><path d="M42.17.638a2.108 2.108 0 0 0-3.022 0L13.542 26.74 3.699 16.707c-.835-.851-2.188-.851-3.023 0s-.835 2.23 0 3.081L12.03 31.362a2.11 2.11 0 0 0 3.023 0L42.17 3.719a2.208 2.208 0 0 0 0-3.081z"/></symbol><symbol id="icon-heart" viewBox="0 0 34 32"><path d="M17.067 30.172c.305 0 .61-.114.838-.343l11.867-11.428c.171-.171 4.362-4 4.362-8.571 0-5.581-3.41-8.914-9.105-8.914-3.333 0-6.457 2.629-7.962 4.114C15.562 3.544 12.438.916 9.105.916 3.41.916 0 4.249 0 9.83c0 4.571 4.191 8.4 4.343 8.533L16.229 29.83c.229.229.533.343.838.343z"/></symbol><symbol id="icon-wave" viewBox="0 0 41 32"><path d="m21.673 12.898 2.674 1.245 3.98-1.184v-2.775c0-4.714-3.98-8.49-8.735-8.49-4.735 0-8.735 3.755-8.735 8.429v12.653c0 1.163-.939 2.082-2.082 2.082s-2.082-.918-2.082-2.082v-5.347H-.001v5.429a8.753 8.753 0 0 0 8.755 8.755c4.796 0 8.755-3.857 8.755-8.633V10.49c0-1.143.939-2.082 2.082-2.082s2.082.939 2.082 2.082v2.408zm10.817 4.531v5.612c0 1.143-.939 2.061-2.082 2.061s-2.082-.918-2.082-2.061v-5.51l-3.98 1.184-2.674-1.245v5.469c0 4.796 3.939 8.674 8.755 8.674a8.753 8.753 0 0 0 8.755-8.755v-5.429h-6.694z"/></symbol><symbol id="icon-cursor" viewBox="0 0 21 32"><path d="M19.042 18.067 1.832.857a1.003 1.003 0 0 0-.756-.319C.942.538.79.572.673.622a1.079 1.079 0 0 0-.672.992v25.277c0 .437.269.824.672.992.118.05.269.084.403.084.286 0 .555-.118.756-.319l5.244-5.244 3.21 7.597a1.08 1.08 0 0 0 1.412.571l2.975-1.261a1.08 1.08 0 0 0 .571-1.412l-3.378-8h6.42c.437 0 .824-.269.992-.672a1.038 1.038 0 0 0-.235-1.16z"/></symbol><symbol id="icon-time" viewBox="0 0 26 32"><path d="M23.664 2.689h1.614a.531.531 0 0 0 .538-.538V1.075a.53.53 0 0 0-.538-.538H.538A.53.53 0 0 0 0 1.075v1.076a.53.53 0 0 0 .538.538h1.613c0 6.219 2.975 10.723 6.269 12.908-3.294 2.185-6.269 6.689-6.269 12.908H.538a.53.53 0 0 0-.538.538v1.076c0 .302.235.538.538.538h24.74a.531.531 0 0 0 .538-.538v-1.076a.531.531 0 0 0-.538-.538h-1.614c0-6.219-2.975-10.723-6.269-12.908 3.294-2.185 6.269-6.689 6.269-12.908zm-2.151 0c0 2.454-.555 4.622-1.429 6.454H5.731c-.874-1.832-1.429-4-1.429-6.454h17.21zm-.958 20.437H5.261c1.244-3.244 3.479-5.546 5.714-6.454h3.866c2.235.908 4.471 3.21 5.714 6.454z"/></symbol><symbol id="icon-triangle" viewBox="0 0 28 32"><path d="M26.088 12.891c2.441 1.354 2.441 4.864 0 6.218L4.933 30.848c-2.37 1.315-5.281-.399-5.281-3.109V4.262c0-2.71 2.911-4.424 5.281-3.109l21.155 11.739z"/></symbol></defs></svg>